
<svg version="1.1" id="レイヤー_1" xmlns="http://www.w3.org/2000/svg" xmlns:xlink="http://www.w3.org/1999/xlink" x="0px"
	 y="0px" viewBox="0 0 406.52 50.37" enable-background="new 0 0 406.52 50.37" xml:space="preserve">
<path fill="#FFFFFF" d="M294.74,1.09V1.07h-1.79v36.83L261.42,1.02h-13.78V1.7c0.72,0.09,1.48,0.24,2.27,0.44
	c0.79,0.2,1.53,0.54,2.21,1.02c0.68,0.47,1.27,1.13,1.77,1.97c0.3,0.51,0.7,1.11,0.7,1.8v42.93h1.74V7.95l0.06-1.23
	c3.08,3.44,5.74,6.77,8.5,9.98c2.76,3.21,5.58,6.51,8.45,9.88c2.87,3.37,5.89,6.91,9.06,10.62c3.17,3.71,6.67,7.78,10.52,12.22
	c0.45,0.45,0.86,0.68,1.22,0.68c0.23,0,0.4-0.06,0.51-0.17c0.11-0.11,0.17-0.26,0.17-0.44c0-1.31,0-2.78,0-4.41
	c0-1.63-0.01-3.27-0.03-4.92c-0.02-1.65-0.03-3.27-0.03-4.85c0-1.63,0-3.08,0-4.34c0-0.38,0-0.75-0.01-1.12V9.67
	c0-1.87,0.29-3.09,0.61-3.77c0.54-1.31,1.32-2.28,2.34-2.92c1.02-0.63,2.36-1.06,4.04-1.29V1.02L294.74,1.09z"/>
<path fill="#FFFFFF" d="M188.57,1.02c0,0-14.72,38.1-14.95,38.6c-0.5-1.36-0.95-2.47-1.81-4.59c-0.86-2.13-1.78-4.42-2.75-6.89
	c-0.97-2.47-1.96-4.98-2.95-7.53c-1-2.56-1.89-4.91-2.68-7.06c-0.42-1.15-0.81-2.21-1.15-3.18h0l0-0.01
	c-0.29-0.84-3.17-9.33-3.17-9.33h-13.29v0.75c1.04,0.05,1.9,0.21,2.58,0.51c0.68,0.3,1.26,0.64,1.73,1.05s0.85,0.81,1.12,1.22
	c0.27,0.41,0.48,0.75,0.61,1.02c0.27,0.54,0.53,1.06,0.78,1.56c0.25,0.5,0.5,1.02,0.75,1.56c0.25,0.54,0.51,1.13,0.78,1.76
	c0.27,0.63,0.57,1.38,0.88,2.24c1.13,2.9,2.26,5.78,3.39,8.65c1.13,2.87,2.31,5.85,3.53,8.93c1.22,3.08,2.48,6.28,3.77,9.6
	c1.29,3.33,2.68,6.82,4.17,10.49h1.46c0,0,8.07-20.7,9.2-23.55c1.13-2.85,2.24-5.62,3.33-8.32c1.09-2.69,2.08-5.12,2.99-7.3
	c0.54-1.31,1.03-2.4,1.46-3.26c0.43-0.86,0.8-1.57,1.12-2.14c0.32-0.56,0.6-0.99,0.85-1.29c0.25-0.29,0.44-0.51,0.58-0.64
	c0.14-0.18,0.65-0.54,1.53-1.09c0.88-0.54,1.91-0.88,3.09-1.02V1.02H188.57z"/>
<path fill="#FFFFFF" d="M353.45,33.91c0-0.01,0.01-0.02,0.02-0.04h-0.83c-0.41,1.95-1.17,3.84-2.27,5.67
	c-1.11,1.83-2.47,3.45-4.07,4.85c-1.61,1.4-3.44,2.53-5.5,3.39c-2.06,0.86-4.27,1.29-6.62,1.29c-2.99,0-5.7-0.61-8.15-1.83
	c-2.44-1.22-4.53-2.88-6.24-4.99c-1.72-2.1-3.04-4.58-3.97-7.43c-0.93-2.85-1.39-5.91-1.39-9.16c0-3.08,0.44-6.07,1.32-8.99
	c0.88-2.92,2.15-5.53,3.8-7.84c1.65-2.31,3.7-4.16,6.14-5.57c2.44-1.4,5.23-2.1,8.35-2.1c2.26,0,4.4,0.41,6.41,1.22
	c2.01,0.81,3.82,1.92,5.43,3.33c1.61,1.4,3,3.05,4.17,4.96c1.18,1.9,2.06,3.94,2.65,6.11l0.81-0.07V1.49h-0.75
	c-0.27,0.41-0.57,0.8-0.88,1.19c-0.32,0.39-0.62,0.72-0.92,1.02c-0.29,0.29-0.57,0.54-0.81,0.75c-0.25,0.2-0.42,0.31-0.51,0.31
	c-0.09,0-0.5-0.25-1.22-0.75c-0.72-0.5-1.76-1.04-3.12-1.63c-1.36-0.59-3.05-1.13-5.09-1.63C338.19,0.25,335.81,0,333.1,0
	c-2.99,0-5.68,0.32-8.08,0.95c-2.4,0.63-4.55,1.48-6.45,2.55c-1.9,1.06-3.55,2.3-4.96,3.7c-1.4,1.4-2.58,2.87-3.53,4.41
	c-0.81,1.31-1.48,2.61-2,3.9c-0.52,1.29-0.93,2.52-1.22,3.7c-0.29,1.18-0.5,2.29-0.61,3.33c-0.11,1.04-0.17,1.97-0.17,2.78
	c0,3.67,0.63,7.03,1.9,10.08c1.27,3.05,3.09,5.68,5.46,7.87c2.38,2.2,5.26,3.89,8.65,5.09c3.39,1.2,7.2,1.8,11.4,1.8
	c2.53,0,4.77-0.22,6.72-0.65c1.94-0.43,3.6-0.93,4.96-1.49c0.52-0.22,0.99-0.42,1.41-0.63C351.1,45.28,353.45,39.82,353.45,33.91z"
	/>
<g>
	<path fill="#FFFFFF" d="M241.25,39.38c-0.51,0.76-1.01,1.47-1.51,2.11c-1.06,1.38-2.16,2.55-3.29,3.5
		c-1.13,0.95-2.31,1.69-3.53,2.21c-1.22,0.52-2.56,0.87-4,1.05c-1.31,0.18-2.55,0.23-3.77,0.23c-1.2,0-24.39,0-24.39,0v1.42h4.97
		h7.76v0h25.73l2.57-10.2L241.25,39.38z"/>
	<polygon fill="#FFFFFF" points="213.49,44.15 213.49,26.95 231.68,26.95 232.24,25.83 227.78,22.8 223.64,25.49 213.49,25.49
		213.49,5.9 205.73,5.9 205.73,25.49 198.32,25.49 198.31,26.92 205.73,26.92 205.73,45.08 213.49,45.08 	"/>
	<path fill="#FFFFFF" d="M218.87,2.5c2.99,0,5.52-0.1,7.6,0.17c2.08,0.27,3.51,0.59,4.28,0.95c2.47,1.22,5.07,3.09,7.8,6.07
		l0.58-0.31l-2.06-8.29h-23.59h-7.76h-4.97V2.5C200.76,2.5,217.92,2.5,218.87,2.5z"/>
</g>
<path fill="#FFFFFF" d="M94,39.39c0,0.01-0.01,0.02-0.01,0.03c-0.59,1.25-1.31,2.4-2.17,3.46c-0.86,1.06-1.89,2-3.09,2.82
	c-1.2,0.81-2.7,1.47-4.51,1.97c-0.77,0.23-1.65,0.41-2.65,0.54c-1,0.14-1.97,0.24-2.92,0.31c-0.95,0.07-1.82,0.11-2.61,0.14
	c-0.79,0.02-1.37,0.03-1.73,0.03c-0.91,0-1.81-0.06-2.72-0.17c-0.91-0.11-1.74-0.25-2.51-0.41c-0.77-0.16-1.43-0.35-1.97-0.58
	c-0.54-0.23-0.91-0.45-1.09-0.68c-0.41-0.63-0.71-1.6-0.71-2.92c0-0.69-0.07-1.42-0.1-2.16V10.24c0.02-0.77,0.04-1.57,0.07-2.46
	c0.04-1.22,0.33-2.32,0.85-3.06c0.52-0.75,1.14-1.32,1.87-1.73c0.72-0.41,1.49-0.59,2.31-0.77c0.81-0.18,1.52-0.32,2.1-0.41V1.08
	h-7.19v0h-7.76v47.4h-4.97v1.42h4.97h7.76v0H92l2.57-10.17L94,39.39z"/>
<path fill="#FFFFFF" d="M42.94,39.38c-0.51,0.76-1.01,1.47-1.51,2.11c-1.06,1.38-2.16,2.55-3.29,3.5c-1.13,0.95-2.31,1.69-3.53,2.21
	c-1.22,0.52-2.56,0.87-4,1.05c-1.31,0.18-2.57,0.29-3.77,0.34c-1.2,0.05-2.18,0.07-2.95,0.07c-1.81,0-3.49-0.14-5.02-0.41
	c-1.54-0.27-2.51-0.72-2.92-1.36c-0.39-0.61-0.76-1.46-0.76-2.73v-17.2h18.19l0.56-1.12l-4.46-3.03l-4.14,2.69H15.18V2.7V2.49
	c2.66,0,5,0.01,5.39,0.01c3.06,0,5.52-0.1,7.6,0.17c2.08,0.27,3.51,0.59,4.28,0.95c2.47,1.22,5.07,3.09,7.8,6.07l0.58-0.31
	l-2.06-8.29H15.18H7.42H2.45V2.5v0h4.19v0h0.78v22.99h-7.4L0,26.92h7.42v21.56H2.45v1.42h4.97h7.76v0h25.73l2.57-10.2L42.94,39.38z"
	/>
<path fill="#FFFFFF" d="M141.31,39.38c-0.51,0.76-1.01,1.47-1.51,2.11c-1.06,1.38-2.16,2.55-3.29,3.5
	c-1.13,0.95-2.31,1.69-3.53,2.21c-1.22,0.52-2.56,0.87-4,1.05c-1.31,0.18-2.57,0.29-3.77,0.34c-1.2,0.05-2.18,0.07-2.95,0.07
	c-1.81,0-3.49-0.14-5.02-0.41c-1.54-0.27-2.51-0.72-2.92-1.36c-0.39-0.61-0.76-1.46-0.76-2.73v-17.2h18.19l0.56-1.12l-4.46-3.03
	l-4.14,2.69h-10.15V2.7V2.49c2.66,0,5,0.01,5.39,0.01c3.06,0,5.52-0.1,7.6,0.17c2.08,0.27,3.51,0.59,4.28,0.95
	c2.47,1.22,5.07,3.09,7.8,6.07l0.58-0.31l-2.06-8.29h-23.59h-7.76h-4.97V2.5v0h4.19v0h0.78v22.99h-7.4l-0.02,1.43h7.42v21.56h-4.97
	v1.42h4.97h7.76v0h25.73l2.57-10.2L141.31,39.38z"/>
<path fill="#FFFFFF" d="M405.98,39.23c-0.51,0.76-1.01,1.47-1.51,2.11c-1.06,1.38-2.16,2.55-3.29,3.5
	c-1.13,0.95-2.31,1.69-3.53,2.21c-1.22,0.52-2.56,0.87-4,1.05c-1.31,0.18-2.57,0.29-3.77,0.34c-1.2,0.05-2.18,0.07-2.95,0.07
	c-1.81,0-3.49-0.14-5.02-0.41c-1.54-0.27-2.51-0.72-2.92-1.36c-0.39-0.61-0.76-1.46-0.76-2.73V26.8h18.19l0.56-1.12l-4.46-3.03
	l-4.14,2.69h-10.15V2.55V2.34c2.66,0,5,0.01,5.39,0.01c3.06,0,5.52-0.1,7.6,0.17c2.08,0.27,3.51,0.59,4.28,0.95
	c2.47,1.22,5.07,3.09,7.8,6.07l0.58-0.31l-2.06-8.29h-23.59h-7.76h-4.97v1.42v0h4.19v0h0.78v22.99h-7.4l-0.02,1.43h7.42v21.56h-4.97
	v1.42h4.97h7.76v0h25.73l2.57-10.2L405.98,39.23z"/>
</svg>
