<?xml version="1.0" encoding="UTF-8" standalone="no"?>
<!DOCTYPE svg PUBLIC "-//W3C//DTD SVG 1.1//EN" "http://www.w3.org/Graphics/SVG/1.1/DTD/svg11.dtd">
<svg width="100%" height="100%" viewBox="0 0 120 38" version="1.1" xmlns="http://www.w3.org/2000/svg" xmlns:xlink="http://www.w3.org/1999/xlink" xml:space="preserve" xmlns:serif="http://www.serif.com/" style="fill-rule:evenodd;clip-rule:evenodd;stroke-linejoin:round;stroke-miterlimit:2;">
    <g transform="matrix(1,0,0,1,-12294.3,-6367.91)">
        <g transform="matrix(1,0,0,1,658.5,13)">
            <g transform="matrix(0.0527354,0,0,0.0527354,11634.1,6354.08)">
                <path d="M114,594L171,535.5L216,580.5L159,639L114,594ZM352.5,718.5L352.5,624L415.5,624L415.5,718.5L352.5,718.5ZM384,175.5C437,175.5 482.25,194.25 519.75,231.75C557.25,269.25 576,314.5 576,367.5C576,420.5 557.25,465.75 519.75,503.25C482.25,540.75 437,559.5 384,559.5C331,559.5 285.75,540.75 248.25,503.25C210.75,465.75 192,420.5 192,367.5C192,314.5 210.75,269.25 248.25,231.75C285.75,194.25 331,175.5 384,175.5ZM640.5,336L736.5,336L736.5,400.5L640.5,400.5L640.5,336ZM552,580.5L597,537L654,594L609,639L552,580.5ZM654,142.5L597,199.5L552,154.5L609,97.5L654,142.5ZM415.5,18L415.5,112.5L352.5,112.5L352.5,18L415.5,18ZM127.5,336L127.5,400.5L31.5,400.5L31.5,336L127.5,336ZM216,154.5L171,199.5L114,142.5L159,97.5L216,154.5Z" style="fill:white;fill-opacity:0.5;fill-rule:nonzero;"/>
            </g>
            <g transform="matrix(-1,0,0,1,23401.1,2.50001)">
                <g transform="matrix(6.12323e-17,1,-1,6.12323e-17,18078,-5336)">
                    <path d="M11707,6366L11714,6376L11700,6376L11707,6366Z" style="fill:white;"/>
                </g>
                <g transform="matrix(1.06667,0,0,1.33333,-777.2,-2123)">
                    <path d="M11703,6370.5C11703,6369.67 11702.2,6369 11701.1,6369L11689.9,6369C11688.8,6369 11688,6369.67 11688,6370.5C11688,6371.33 11688.8,6372 11689.9,6372L11701.1,6372C11702.2,6372 11703,6371.33 11703,6370.5Z" style="fill:white;"/>
                </g>
            </g>
            <g transform="matrix(0.0581823,0,0,0.0581823,11718,6351.16)">
                <path d="M319.5,64.5C408.5,64.5 484.25,95.75 546.75,158.25C609.25,220.75 640.5,296 640.5,384C640.5,472 609.25,547.25 546.75,609.75C484.25,672.25 408.5,703.5 319.5,703.5C261.5,703.5 208.5,689.5 160.5,661.5C209.5,633.5 248.25,594.75 276.75,545.25C305.25,495.75 319.5,442 319.5,384C319.5,326 305.25,272.25 276.75,222.75C248.25,173.25 209.5,134.5 160.5,106.5C208.5,78.5 261.5,64.5 319.5,64.5Z" style="fill:white;fill-rule:nonzero;"/>
            </g>
        </g>
    </g>
</svg>
