<?xml version="1.0" encoding="UTF-8" standalone="no"?>
<!DOCTYPE svg PUBLIC "-//W3C//DTD SVG 1.1//EN" "http://www.w3.org/Graphics/SVG/1.1/DTD/svg11.dtd">
<svg width="100%" height="100%" viewBox="0 0 20 20" version="1.1" xmlns="http://www.w3.org/2000/svg" xmlns:xlink="http://www.w3.org/1999/xlink" xml:space="preserve" xmlns:serif="http://www.serif.com/" style="fill-rule:evenodd;clip-rule:evenodd;stroke-linejoin:round;stroke-miterlimit:2;">
    <g transform="matrix(1,0,0,1,-562.583,-1395)">
        <g transform="matrix(1,0,0,1,-1035,1395.32)">
            <g transform="matrix(0.161186,0,0,0.161186,1613.72,11.2991)">
                <path d="M0,-24.076C1.796,-24.076 3.254,-22.617 3.254,-20.822C3.254,-19.029 1.796,-17.57 0,-17.57L-9.071,-17.57L-9.071,-11.75L0,-11.75C1.793,-11.75 3.254,-10.29 3.254,-8.496C3.254,-6.701 1.793,-5.242 0,-5.242L-12.327,-5.242C-14.118,-5.242 -15.58,-6.701 -15.58,-8.496L-15.58,-33.149C-15.58,-34.943 -14.121,-36.403 -12.327,-36.403L0,-36.403C1.796,-36.403 3.254,-34.943 3.254,-33.149C3.254,-31.355 1.796,-29.896 0,-29.896L-9.071,-29.896L-9.071,-24.076L0,-24.076ZM-19.946,-8.496C-19.946,-7.092 -20.838,-5.852 -22.17,-5.41C-22.505,-5.298 -22.854,-5.242 -23.203,-5.242C-24.218,-5.242 -25.19,-5.728 -25.803,-6.544L-38.436,-23.747L-38.436,-8.496C-38.436,-6.701 -39.894,-5.242 -41.688,-5.242C-43.482,-5.242 -44.942,-6.701 -44.942,-8.496L-44.942,-33.149C-44.942,-34.551 -44.048,-35.791 -42.719,-36.235C-42.384,-36.348 -42.035,-36.403 -41.686,-36.403C-40.671,-36.403 -39.697,-35.918 -39.088,-35.102L-26.451,-17.897L-26.451,-33.149C-26.451,-34.943 -24.99,-36.403 -23.198,-36.403C-21.403,-36.403 -19.946,-34.943 -19.946,-33.149L-19.946,-8.496ZM-49.62,-8.496C-49.62,-6.701 -51.079,-5.242 -52.871,-5.242C-54.664,-5.242 -56.123,-6.701 -56.123,-8.496L-56.123,-33.149C-56.123,-34.943 -54.664,-36.403 -52.871,-36.403C-51.079,-36.403 -49.62,-34.943 -49.62,-33.149L-49.62,-8.496ZM-62.37,-5.242L-74.696,-5.242C-76.489,-5.242 -77.949,-6.701 -77.949,-8.496L-77.949,-33.149C-77.949,-34.943 -76.489,-36.403 -74.696,-36.403C-72.902,-36.403 -71.444,-34.943 -71.444,-33.149L-71.444,-11.75L-62.37,-11.75C-60.574,-11.75 -59.117,-10.29 -59.117,-8.496C-59.117,-6.701 -60.574,-5.242 -62.37,-5.242M23.956,-21.759C23.956,-49.519 -3.876,-72.104 -38.084,-72.104C-72.291,-72.104 -100.124,-49.519 -100.124,-21.759C-100.124,3.128 -78.053,23.972 -48.238,27.915C-46.22,28.35 -43.47,29.249 -42.773,30.975C-42.148,32.542 -42.363,34.998 -42.573,36.583C-42.573,36.583 -43.298,40.961 -43.458,41.895C-43.728,43.463 -44.705,48.028 -38.084,45.239C-31.462,42.45 -2.357,24.2 10.658,9.217L10.655,9.217C19.647,-0.64 23.956,-10.648 23.956,-21.759" style="fill:white;fill-rule:nonzero;"/>
            </g>
        </g>
    </g>
</svg>
