<?xml version="1.0" encoding="UTF-8" standalone="no"?>
<!DOCTYPE svg PUBLIC "-//W3C//DTD SVG 1.1//EN" "http://www.w3.org/Graphics/SVG/1.1/DTD/svg11.dtd">
<svg width="100%" height="100%" viewBox="0 0 180 21" version="1.1" xmlns="http://www.w3.org/2000/svg" xmlns:xlink="http://www.w3.org/1999/xlink" xml:space="preserve" xmlns:serif="http://www.serif.com/" style="fill-rule:evenodd;clip-rule:evenodd;stroke-linejoin:round;stroke-miterlimit:2;">
    <g transform="matrix(1,0,0,1,-120,-29.9265)">
        <g transform="matrix(1.03156,0,0,1,-60.571,0)">
            <g id="logo" transform="matrix(0.127543,0,0,0.131569,175.046,29.9265)">
                <g transform="matrix(1,0,0,1,0.1992,3.801)">
                    <path d="M0,147.327L0,145.826C4.602,145.826 7.585,144.961 8.952,143.227C10.318,141.496 11.003,138.53 11.003,134.332L11.003,13.795C11.003,9.53 10.468,6.448 9.402,4.549C8.335,2.65 5.134,1.635 -0.199,1.5L-0.199,0L39.308,0L39.308,1.5C35.64,1.5 33.072,1.968 31.606,2.9C30.139,3.835 29.172,4.935 28.706,6.201C28.238,7.469 28.006,10.336 28.006,14.803L28.006,118.222C28.006,127.091 30.136,133.342 34.397,136.974C38.659,140.61 45.951,142.426 56.271,142.426L74.25,142.426C82.904,142.426 89.248,140.293 93.277,136.024C97.306,131.759 99.553,123.723 100.019,111.921L101.52,111.921L101.52,147.327L0,147.327Z" style="fill:white;fill-rule:nonzero;"/>
                </g>
                <g transform="matrix(1,0,0,1,136.353,73.5139)">
                    <path d="M0,5.701L39.847,5.701L19.941,-44.509L0,5.701ZM41.823,9.802L-1.414,9.802L-23.717,65.412C-25.251,69.412 -26.018,71.88 -26.018,72.813C-26.018,75.014 -24.384,76.113 -21.116,76.113L-21.116,77.614L-43.02,77.614L-43.02,76.113C-40.09,76.113 -37.626,75.398 -35.627,73.963C-33.63,72.528 -31.431,68.809 -29.032,62.805L24.368,-71.913L27.016,-71.913L79.544,58.193C79.544,58.862 80.89,62.015 83.584,67.654C86.278,73.295 90.386,76.113 95.905,76.113L95.905,77.614L61.499,77.614L61.499,76.113C64.632,76.113 66.199,74.881 66.199,72.413C66.199,70.747 65.433,68.079 63.899,64.411C63.632,64.145 63.399,63.712 63.199,63.111C63.064,62.445 62.965,62.111 62.899,62.111L41.823,9.802Z" style="fill:white;fill-rule:nonzero;"/>
                </g>
                <g transform="matrix(1,0,0,1,345.694,152.928)">
                    <path d="M0,-149.127L28.506,-149.127L28.506,-147.627C24.17,-147.492 21.17,-146.576 19.504,-144.876C17.836,-143.176 17.004,-139.591 17.004,-134.124L17.004,0L-100.518,-125.137L-100.518,-16.193C-100.518,-12.729 -100.252,-10.164 -99.718,-8.498C-99.185,-6.832 -98.418,-5.699 -97.418,-5.099C-96.417,-4.499 -93.917,-3.9 -89.916,-3.301L-89.916,-1.8L-118.222,-1.8L-118.222,-3.301C-113.154,-3.301 -110.004,-4.199 -108.77,-5.999C-107.536,-7.798 -106.919,-12.096 -106.919,-18.893L-106.919,-118.542C-106.919,-127.27 -108.137,-134.399 -110.57,-139.93C-113.005,-145.461 -118.621,-148.026 -127.423,-147.627L-127.423,-149.127L-99.718,-149.127L10.702,-31.549L10.702,-135.529C10.702,-141.127 9.702,-144.543 7.702,-145.776C5.701,-147.01 3.134,-147.627 0,-147.627L0,-149.127Z" style="fill:white;fill-rule:nonzero;"/>
                </g>
                <g transform="matrix(1,0,0,1,422.726,148.027)">
                    <path d="M0,-141.126L-22.604,-141.126L-22.604,-26.805C-22.604,-19.604 -21.389,-14.253 -18.953,-10.752C-16.521,-7.252 -12.369,-4.717 -6.501,-3.15C-0.635,-1.583 7.267,-0.801 17.203,-0.801C44.808,-0.801 64.194,-7.885 75.363,-22.055C86.531,-36.223 92.117,-51.676 92.117,-68.413C92.117,-88.082 84.466,-105.119 69.162,-119.522C53.859,-133.925 30.806,-141.126 0,-141.126M-50.209,-142.727L-50.209,-144.227L17.403,-144.227C34.606,-144.227 48.191,-142.876 58.16,-140.176C68.128,-137.476 76.813,-133.225 84.215,-127.424C91.616,-121.622 97.483,-114.204 101.818,-105.17C106.152,-96.134 108.319,-86.049 108.319,-74.914C108.319,-64.178 106.069,-53.626 101.568,-43.258C97.067,-32.889 90.949,-23.955 83.215,-16.453C75.479,-8.952 67.328,-3.816 58.761,-1.051C50.191,1.717 36.939,3.101 19.003,3.101L-50.209,3.101L-50.209,1.6L-48.409,1.6C-44.809,1.6 -42.442,0.151 -41.308,-2.748C-40.175,-5.645 -39.607,-10.893 -39.607,-18.489L-39.607,-125.735C-39.607,-133.73 -40.292,-138.562 -41.658,-140.228C-43.025,-141.894 -45.876,-142.727 -50.209,-142.727" style="fill:white;fill-rule:nonzero;"/>
                </g>
                <g transform="matrix(1,0,0,1,663.932,151.128)">
                    <path d="M0,-147.327L23.258,-147.327L23.258,-145.827C15.396,-145.427 11.466,-141.323 11.466,-133.516C11.466,-131.848 11.666,-129.546 12.066,-126.611L27.559,-15.003C28.491,-9.442 29.541,-5.886 30.709,-4.331C31.875,-2.774 34.292,-1.832 37.96,-1.501L37.96,0L4.854,0L4.854,-1.501C9.268,-1.366 11.474,-3.485 11.474,-7.858C11.474,-8.851 11.274,-10.806 10.874,-13.72L-4.247,-121.923L-57.058,0L-58.058,0L-111.167,-121.723L-126.108,-12.907C-126.376,-11.254 -126.509,-9.369 -126.509,-7.253C-126.509,-3.418 -124.264,-1.501 -119.769,-1.501L-119.769,0L-142.272,0L-142.272,-1.501C-138.872,-1.501 -136.688,-1.916 -135.722,-2.751C-134.756,-3.584 -134.006,-4.917 -133.471,-6.752C-132.938,-8.585 -132.538,-10.635 -132.271,-12.902L-115.423,-131.918C-118.164,-138.522 -120.906,-142.49 -123.647,-143.825C-126.389,-145.159 -129.029,-145.827 -131.571,-145.827L-131.571,-147.327L-103.788,-147.327L-51.977,-26.824L0,-147.327Z" style="fill:white;fill-rule:nonzero;"/>
                </g>
                <g transform="matrix(1,0,0,1,730.126,73.5139)">
                    <path d="M0,5.701L39.847,5.701L19.941,-44.509L0,5.701ZM41.823,9.802L-1.414,9.802L-23.717,65.412C-25.251,69.412 -26.018,71.88 -26.018,72.813C-26.018,75.014 -24.384,76.113 -21.116,76.113L-21.116,77.614L-43.021,77.614L-43.021,76.113C-40.09,76.113 -37.626,75.398 -35.627,73.963C-33.63,72.528 -31.431,68.809 -29.032,62.805L24.368,-71.913L27.016,-71.913L79.544,58.193C79.544,58.862 80.89,62.015 83.584,67.654C86.278,73.295 90.386,76.113 95.905,76.113L95.905,77.614L61.499,77.614L61.499,76.113C64.632,76.113 66.199,74.881 66.199,72.413C66.199,70.747 65.433,68.079 63.899,64.411C63.632,64.145 63.399,63.712 63.199,63.111C63.064,62.445 62.965,62.111 62.899,62.111L41.823,9.802Z" style="fill:white;fill-rule:nonzero;"/>
                </g>
                <g transform="matrix(1,0,0,1,846.251,148.628)">
                    <path d="M0,-140.927L0,-71.814L15.433,-71.814C27.591,-71.814 36.611,-74.68 42.49,-80.415C48.37,-86.15 51.31,-93.684 51.31,-103.02C51.31,-112.087 48.42,-120.673 42.641,-128.775C36.861,-136.876 26.689,-140.927 12.126,-140.927L0,-140.927ZM-27.604,-143.327L-27.604,-144.827L14.203,-144.827C24.805,-144.827 32.472,-144.593 37.207,-144.126C41.94,-143.658 46.791,-142.107 51.76,-139.472C56.727,-136.835 60.477,-133.266 63.012,-128.762C65.545,-124.258 66.813,-118.736 66.813,-112.197C66.813,-104.722 64.561,-97.599 60.06,-90.825C55.559,-84.052 49.206,-78.329 41.005,-73.659L51.406,-57.671C53.674,-53.673 59.692,-44.912 69.461,-31.388C79.23,-17.864 86.781,-9.618 92.117,-6.653C97.451,-3.685 102.619,-2.201 107.62,-2.201C112.554,-2.201 118.222,-4.102 124.623,-7.903L125.223,-5.902C117.228,0.634 106.837,3.9 94.047,3.9C85.521,3.9 78.192,1.376 72.063,-3.672C65.934,-8.72 55.267,-22.571 40.061,-45.227C39.926,-45.358 39.86,-45.49 39.86,-45.625L25.053,-68.413L11.926,-68.013L0,-68.013L0,-11.685C0,-7.156 0.594,-3.911 1.783,-1.947C2.971,0.017 5.845,0.999 10.402,0.999L10.402,2.5L-27.604,2.5L-27.604,0.999C-22.871,0.8 -19.921,-0.199 -18.753,-1.998C-17.588,-3.797 -17.003,-7.462 -17.003,-12.994L-17.003,-130.034C-17.003,-133.831 -17.503,-136.979 -18.503,-139.478C-19.504,-141.977 -22.538,-143.26 -27.604,-143.327" style="fill:white;fill-rule:nonzero;"/>
                </g>
                <g transform="matrix(1,0,0,1,962.388,151.128)">
                    <path d="M0,-147.327L42.207,-147.327L42.207,-145.827C37.606,-146.027 34.372,-145.343 32.506,-143.776C30.638,-142.209 29.705,-138.126 29.705,-131.524L29.705,-75.014L117.221,-140.725C118.954,-141.926 119.821,-143.026 119.821,-144.026C119.821,-145.226 117.855,-145.827 113.921,-145.827L113.921,-147.327L145.727,-147.327L145.727,-145.827C137.719,-145.627 129.912,-142.698 122.308,-137.044L46.043,-80.152L122.122,-22.383C122.188,-22.315 122.288,-22.248 122.422,-22.182C122.555,-22.115 122.655,-22.015 122.723,-21.883C122.856,-21.815 122.988,-21.782 123.122,-21.782C133.116,-14.318 140.864,-9.072 146.369,-6.044C151.873,-3.015 157.025,-1.501 161.829,-1.501L161.829,0L111.72,0L111.72,-1.501C116.187,-1.501 118.421,-2.001 118.421,-3.001C118.421,-3.866 116.587,-5.701 112.92,-8.502L29.705,-71.713L29.705,-17.081C29.705,-10.689 30.155,-6.761 31.056,-5.297C31.955,-3.831 33.156,-2.782 34.656,-2.149C36.156,-1.516 38.606,-1.301 42.008,-1.501L42.008,0L0,0L0,-1.501C5.601,-1.233 9.117,-2.083 10.552,-4.05C11.984,-6.015 12.702,-10.163 12.702,-16.492L12.702,-130.735C12.702,-137.264 11.984,-141.495 10.552,-143.428C9.117,-145.359 5.601,-146.16 0,-145.827L0,-147.327Z" style="fill:white;fill-rule:nonzero;"/>
                </g>
                <g transform="matrix(1,0,0,1,1215.27,64.5121)">
                    <path d="M0,25.404C8.002,25.404 14.953,22.459 20.854,16.564C26.755,10.671 29.705,3.927 29.705,-3.666C29.705,-15.787 25.37,-27.824 16.703,-39.78C8.034,-51.733 -2.035,-57.71 -13.502,-57.71C-21.838,-57.71 -28.605,-54.713 -33.806,-48.72C-39.007,-42.725 -41.607,-35.766 -41.607,-27.841C-41.607,-15.453 -37.642,-3.482 -29.705,8.073C-21.771,19.629 -11.869,25.404 0,25.404M-36.707,88.616L-37.707,85.815C-21.304,81.882 -8.901,76.648 -0.5,70.113C7.901,63.579 14.969,55.077 20.704,44.608C26.437,34.14 29.705,22.804 30.506,10.602L30.105,10.202C25.971,18.137 20.187,24.089 12.752,28.055C5.316,32.023 -2.367,34.006 -10.302,34.006C-22.972,34.006 -33.673,29.444 -42.407,20.318C-51.144,11.192 -55.51,-0.164 -55.51,-13.754C-55.51,-27.341 -50.794,-38.981 -41.357,-48.673C-31.923,-58.366 -20.403,-63.212 -6.801,-63.212C8.401,-63.212 21.354,-57.347 32.056,-45.619C42.758,-33.892 48.108,-19.232 48.108,-1.641C48.108,20.349 40.841,39.807 26.305,56.732C11.768,73.657 -9.236,84.286 -36.707,88.616" style="fill:white;fill-rule:nonzero;"/>
                </g>
                <g transform="matrix(1,0,0,1,1293.47,136.225)">
                    <path d="M0,-119.322L-5.572,-77.725C2.372,-81.518 11.718,-83.416 22.465,-83.416C37.417,-83.416 49.666,-78.865 59.212,-69.763C68.758,-60.662 73.532,-49.042 73.532,-34.907C73.532,-21.037 68.431,-8.935 58.229,1.4C48.027,11.737 35.458,16.903 20.522,16.903C12.187,16.903 4.402,15.403 -2.832,12.402C-10.068,9.402 -17.585,4.835 -25.387,-1.301L-25.387,-6.002C-18.385,-1.534 -11.501,2.15 -4.732,5.051C2.034,7.951 9.02,9.402 16.222,9.402C28.689,9.402 38.741,5.351 46.377,-2.751C54.011,-10.852 57.829,-20.204 57.829,-30.806C57.829,-41.008 54.444,-49.492 47.677,-56.26C40.908,-63.027 31.657,-66.413 19.922,-66.413C9.786,-66.413 -1.217,-63.677 -13.084,-58.211L-3.683,-132.425L63.13,-132.425C65.53,-132.425 67.546,-132.575 69.181,-132.875C70.814,-133.175 72.064,-134.225 72.932,-136.025L74.632,-136.225L69.931,-119.52L0,-119.322Z" style="fill:white;fill-rule:nonzero;"/>
                </g>
            </g>
        </g>
    </g>
</svg>
