<?xml version="1.0" encoding="UTF-8" standalone="no"?>
<!DOCTYPE svg PUBLIC "-//W3C//DTD SVG 1.1//EN" "http://www.w3.org/Graphics/SVG/1.1/DTD/svg11.dtd">
<svg width="100%" height="100%" viewBox="0 0 16 16" version="1.1" xmlns="http://www.w3.org/2000/svg" xmlns:xlink="http://www.w3.org/1999/xlink" xml:space="preserve" xmlns:serif="http://www.serif.com/" style="fill-rule:evenodd;clip-rule:evenodd;stroke-linejoin:round;stroke-miterlimit:2;">
    <g transform="matrix(1,0,0,1,-525,-1396.53)">
        <g transform="matrix(1,0,0,1,-1035,1395.32)">
            <g transform="matrix(0.888889,0,0,0.888889,1557.33,-1.46147)">
                <path d="M20.016,15.375C20.297,15.375 20.532,15.469 20.719,15.656C20.906,15.843 21,16.078 21,16.359L21,19.828C21,20.609 20.672,21 20.016,21C15.36,21 11.36,19.328 8.016,15.984C4.672,12.64 3,8.64 3,3.984C3,3.328 3.391,3 4.172,3L7.641,3C7.922,3 8.157,3.094 8.344,3.281C8.531,3.468 8.625,3.703 8.625,3.984C8.625,5.203 8.813,6.375 9.188,7.5C9.313,7.906 9.235,8.25 8.954,8.531L7.032,10.219C8.469,13.219 10.766,15.485 13.923,17.016L15.47,15.047C15.657,14.86 15.892,14.766 16.173,14.766C16.329,14.766 16.438,14.782 16.501,14.813C17.626,15.188 18.798,15.376 20.017,15.376L20.016,15.375Z" style="fill:white;fill-rule:nonzero;"/>
            </g>
        </g>
    </g>
</svg>
