<?xml version="1.0" encoding="UTF-8" standalone="no"?>
<!DOCTYPE svg PUBLIC "-//W3C//DTD SVG 1.1//EN" "http://www.w3.org/Graphics/SVG/1.1/DTD/svg11.dtd">
<svg width="100%" height="100%" viewBox="0 0 100 31" version="1.1" xmlns="http://www.w3.org/2000/svg" xmlns:xlink="http://www.w3.org/1999/xlink" xml:space="preserve" xmlns:serif="http://www.serif.com/" style="fill-rule:evenodd;clip-rule:evenodd;stroke-linejoin:round;stroke-miterlimit:2;">
    <g transform="matrix(1,0,0,1,-1517,-402.515)">
        <g transform="matrix(0.565303,0,0,0.565303,1582.39,415.872)">
            <path d="M0,9.731C-0.307,8.813 -0.612,7.895 -0.918,6.977C-2.856,6.875 -4.795,6.773 -6.732,6.67C-8.56,7.597 -9.967,8.212 -12.24,8.506C-12.358,11.502 -11.423,12.497 -8.568,12.485C-9.374,16.771 -7.758,17.24 -6.732,20.44C-2.015,20.83 2.346,21.138 7.037,20.44L7.037,17.075C4.247,16.349 -0.642,16.21 -3.979,16.157C-2.007,14.409 -1.776,11.665 0,9.731M28.457,17.075C27.539,16.768 26.62,16.462 25.703,16.157C27.401,12.85 33.272,13.175 35.801,10.649C39.671,15.099 29.699,15.434 28.457,17.075M39.778,-13.524L41.92,-13.524C41.104,-12.097 40.288,-10.668 39.473,-9.241C39.269,-9.75 39.064,-10.261 38.86,-10.77C39.166,-11.688 39.473,-12.606 39.778,-13.524M59.668,17.075C53.26,17.209 45.422,19.032 38.86,20.134C40.754,17.68 44.594,12.319 46.816,10.342C46.76,8.526 46.381,7.716 45.286,6.977C44.424,5.694 42.104,6.559 41.309,5.447C40.084,3.738 41.427,-1.569 39.778,-3.427C43.248,-5.247 44.125,-7.812 46.816,-10.159C46.949,-14.627 46.252,-15.536 44.674,-17.808C41.689,-18.042 37.56,-19.256 35.494,-17.196C33.599,-15.808 33.006,-7.834 34.576,-5.263C28.503,-3.324 18.508,1.861 16.217,-8.017L11.934,-8.323L11.934,-4.039C16.937,-1.423 20.113,6.384 30.293,1.775C32.619,0.721 33.751,1.964 35.188,0.245C35.597,2.183 36.004,4.121 36.412,6.059C28.226,6.222 24.079,11.486 18.971,14.627L18.971,19.216C20.722,19.407 24.021,20.285 25.091,21.358C28.589,21.085 30.906,21.015 31.517,23.806C37.719,24.034 57.713,24.699 60.586,21.665C62.231,19.999 60.291,18.351 59.668,17.075M-95.163,-11.995C-95.265,-11.79 -95.367,-11.586 -95.469,-11.383L-96.387,-11.383L-96.387,-12.606C-95.979,-12.504 -95.571,-12.402 -95.163,-12.301L-95.163,-11.995ZM-51.101,-7.405C-55.94,-7.427 -61.266,-6.845 -64.564,-4.957C-65.512,-7.798 -67.706,-8.533 -69.46,-10.465C-70.896,-10.496 -71.55,-10.53 -72.214,-9.852L-73.132,-9.852C-73.11,-7.18 -71.992,-5.121 -70.072,-4.345C-71.136,-2.761 -88.823,-0.552 -92.103,2.999C-92.674,1.822 -92.604,1.097 -91.491,0.551C-91.306,-3.351 -92.311,-4.805 -94.857,-5.875C-92.897,-9.082 -84.853,-6.862 -82.005,-9.241C-81.224,-10.03 -81.289,-11.866 -81.394,-13.524C-85.269,-14.137 -89.146,-14.748 -93.021,-15.36C-96.291,-16.749 -97.348,-19.326 -102.201,-19.338C-103.067,-15.769 -100.282,-13.243 -100.977,-10.465C-101.777,-9.706 -114.271,-6.122 -115.664,-5.875L-115.664,-3.121C-114.95,-2.305 -114.236,-1.489 -113.522,-0.673C-108.205,-0.986 -105.454,-4.278 -99.753,-4.651C-100.17,-3.296 -99.53,-4.028 -100.671,-3.427C-100.742,-0.888 -100.281,-0.116 -98.529,0.551C-100.216,8.916 -110.139,7.147 -110.156,16.768C-109.329,17.309 -109.023,17.581 -108.626,18.604C-104.143,18.866 -101.596,17.394 -100.977,14.014C-99.651,13.913 -98.325,13.81 -96.999,13.709C-96.884,16.914 -96.639,21.287 -98.223,22.888L-98.835,23.501L-101.283,20.747L-103.119,20.747C-103.323,20.951 -103.527,21.154 -103.73,21.358C-103.263,25.801 -99.789,25.716 -98.529,28.702C-95.616,28.853 -93.744,28.23 -93.021,26.254C-91.731,24.87 -92.303,19.294 -92.409,16.768C-91.444,17.311 -90.783,17.539 -90.267,18.604C-87.877,18.677 -86.66,18.419 -85.371,17.686C-85.877,13.098 -89.026,12.02 -89.349,7.588C-82.71,6.16 -76.113,1.169 -67.624,1.163C-67.897,8.664 -75.495,15.252 -83.229,15.544L-83.229,19.522C-82.821,19.726 -82.414,19.93 -82.005,20.134C-81.336,20.744 -80.967,20.743 -79.558,20.747C-78.568,20.749 -55.809,15.938 -55.384,15.544C-54.875,15.443 -54.364,15.34 -53.854,15.239C-53.72,10.467 -62.284,8.756 -65.482,11.873L-65.788,11.873C-64.258,8.088 -62.294,5.445 -62.422,-0.367L-49.876,-2.203L-49.876,-6.487C-51.231,-6.904 -50.5,-6.264 -51.101,-7.405M-12.852,-13.219C-9.896,-13.288 -6.552,-12.69 -5.202,-11.077L-4.284,-11.077C-7.14,-10.668 -9.996,-10.261 -12.852,-9.852L-12.852,-13.219ZM-11.322,0.245C-11.729,0.347 -12.138,0.449 -12.546,0.551L-12.546,-4.651C-11.73,-4.753 -10.914,-4.855 -10.098,-4.957C-8.343,-4.598 -8.959,-4.34 -7.65,-3.733C-8.497,-1.751 -10.244,-1.408 -11.322,0.245M-17.748,-8.323C-22.964,-7.636 -26.464,-4.686 -30.905,-3.733C-28.349,-7.334 -23.067,-12.061 -17.748,-12.606L-17.748,-8.323ZM-17.748,1.775C-21.388,3.042 -27.812,3.19 -30.293,5.753C-31.007,5.855 -31.722,5.957 -32.436,6.059L-32.436,2.999C-27.07,2.403 -23.836,-2.043 -17.748,-2.509L-17.748,1.775ZM-18.666,25.948C-20.933,25.319 -21.074,23.945 -23.562,23.501C-22.49,22.099 -21.541,20.666 -19.89,19.829C-20.094,18.094 -20.298,16.36 -20.502,14.627C-23.723,13.48 -26.148,11.56 -30.905,11.567C-26.928,10.343 -22.949,9.119 -18.972,7.895L-17.748,7.895C-17.759,14.313 -18.556,20.721 -18.666,25.948M-29.069,20.44C-30.323,19.851 -31.586,19.419 -33.354,19.216C-33.648,18.107 -33.333,18.593 -33.965,17.993C-34.067,17.585 -34.169,17.176 -34.271,16.768C-33.863,16.667 -33.455,16.564 -33.047,16.462C-30.01,16.387 -27.766,16.582 -26.01,17.686C-27.172,18.558 -28.109,19.38 -29.069,20.44M-6.426,4.835C-5.141,1.67 6.284,-8.115 0.611,-13.831C-3.49,-17.964 -13.872,-16.544 -14.994,-22.398C-19.461,-23.342 -23.482,-23.674 -29.682,-23.622C-30.191,-23.214 -30.701,-22.806 -31.211,-22.398C-30.905,-21.276 -30.6,-20.154 -30.293,-19.032C-29.783,-18.42 -29.273,-17.808 -28.764,-17.196C-27.033,-17.131 -26.623,-16.965 -26.01,-18.114L-23.256,-18.114C-23.851,-16.065 -28.891,-13.391 -30.905,-12.913C-30.963,-15.154 -31.62,-16.901 -33.047,-17.808L-33.047,-18.42C-39.676,-18.59 -39.837,-16.992 -43.145,-14.442C-43.083,-12.163 -42.635,-11.805 -42.227,-10.159C-41.003,-9.964 -41.316,-10.183 -40.697,-9.547C-38.96,-9.719 -39.091,-9.956 -37.943,-10.465L-37.943,-12.606C-36.712,-12.774 -36.801,-12.801 -36.107,-13.219L-35.495,-12.606C-36.413,-8.323 -37.331,-4.039 -38.249,0.245C-38.727,1.227 -40.03,1.062 -40.697,1.775C-43.28,4.535 -42.374,10.962 -40.697,13.709C-41.465,14.89 -42.434,15.557 -43.757,16.157C-43.812,17.635 -43.841,18.533 -43.145,19.216C-42.687,20.732 -41.425,21.393 -39.779,21.665C-39.791,22.605 -39.292,29.204 -39.167,29.314C-36.941,33.405 -28.591,28.467 -27.539,26.254C-22.856,27.797 -21.877,31.238 -14.994,31.15C-14.79,31.048 -14.586,30.946 -14.382,30.844C-13.469,27.087 -13.661,21.859 -12.546,17.38C-12.942,10.016 -13.57,4.979 -6.426,4.835"/>
        </g>
    </g>
</svg>
