<?xml version="1.0" encoding="UTF-8" standalone="no"?>
<!DOCTYPE svg PUBLIC "-//W3C//DTD SVG 1.1//EN" "http://www.w3.org/Graphics/SVG/1.1/DTD/svg11.dtd">
<svg width="100%" height="100%" viewBox="0 0 110 43" version="1.1" xmlns="http://www.w3.org/2000/svg" xmlns:xlink="http://www.w3.org/1999/xlink" xml:space="preserve" xmlns:serif="http://www.serif.com/" style="fill-rule:evenodd;clip-rule:evenodd;stroke-linejoin:round;stroke-miterlimit:2;">
    <g transform="matrix(1,0,0,1,-1517,-400.059)">
        <g transform="matrix(0.588264,0,0,0.588264,1531.43,410.201)">
            <path d="M0,37.796C-2.572,36.257 -3.289,35.235 -4.642,32.492C-4.421,31.166 -4.2,29.839 -3.98,28.514C-2.211,28.069 -0.444,27.629 1.327,27.185C0.883,30.72 0.441,34.259 0,37.796M-7.295,48.406C-11.256,45.872 -11.809,41.442 -13.262,36.471C-11.383,35.088 -11.946,35.549 -9.284,35.807C-9.064,35.364 -8.841,34.922 -8.622,34.482C-8.841,33.596 -9.064,32.713 -9.284,31.828C-6.649,33.413 -2.956,38.678 -1.989,41.773C-3.759,43.983 -5.526,46.194 -7.295,48.406M-5.306,17.241C-7.076,19.009 -8.841,20.777 -10.61,22.544C-11.053,22.987 -11.495,23.428 -11.936,23.87C-12.158,23.207 -12.378,22.544 -12.602,21.88C-10.167,20.334 -7.738,18.787 -5.306,17.241M-4.642,24.535C-5.085,24.755 -5.526,24.976 -5.97,25.197C-7.516,26.523 -9.064,27.851 -10.61,29.172L-10.61,27.185C-9.064,26.302 -7.516,25.417 -5.97,24.535L-4.642,24.535ZM2.653,40.447C1.508,37.573 3.548,32.717 4.643,27.851C2.024,24.534 0.188,21.83 -5.306,21.88C-3.316,19.894 -1.33,17.904 0.664,15.915C-0.067,13.071 0.46,14.053 -1.33,12.599C-5.085,14.588 -8.841,16.579 -12.602,18.567C-12.82,17.461 -13.041,16.356 -13.262,15.252C-14.146,15.03 -15.032,14.81 -15.917,14.588C-15.458,19.428 -15.188,19.969 -17.903,22.544C-16.581,23.207 -15.254,23.87 -13.924,24.535C-14.81,25.64 -15.694,26.743 -16.581,27.851C-14.127,29.376 -14.214,28.186 -12.602,31.166C-12.82,31.828 -13.041,32.492 -13.262,33.156C-14.586,32.492 -15.917,31.828 -17.243,31.166C-17.014,34.908 -16.233,34.014 -18.569,35.807C-18.208,37.582 -12.184,49.69 -8.622,50.395C-4.468,51.643 -0.764,46.028 0,41.773L0.664,41.773C3.146,42.698 3.911,42.817 6.631,42.439C5.294,40.012 6.117,40.725 2.653,40.447M-4.642,-10.61C-2.653,-9.947 -0.667,-9.284 1.327,-8.621C1.546,-8.178 1.768,-7.736 1.991,-7.295C-0.444,-5.748 -2.874,-4.202 -5.306,-2.653C-5.085,-5.305 -4.862,-7.958 -4.642,-10.61M-11.936,11.274L-11.936,14.588C-7.516,11.714 -3.093,8.839 1.327,5.967C1.768,5.305 2.21,4.641 2.653,3.977C0.019,2.574 -1.811,4.626 -4.642,6.631L-5.306,6.631C-5.085,4.641 -4.862,2.65 -4.642,0.665C-1.33,-1.548 1.991,-3.759 5.306,-5.97C5.525,-6.852 5.746,-7.736 5.968,-8.621C1.651,-10.502 0.061,-12.592 -6.633,-12.601C-8.529,-9.005 -8.024,-6.536 -7.958,-0.663C-13.041,2.871 -18.126,6.41 -23.208,9.947C-23.651,10.609 -24.091,11.274 -24.535,11.934C-24.315,12.376 -24.091,12.818 -23.872,13.261C-18.569,9.725 -13.262,6.188 -7.958,2.65C-7.677,8.131 -8.208,9.761 -11.936,11.274M88.19,44.425C88.635,43.764 89.074,43.101 89.516,42.439C91.287,42.879 93.053,43.321 94.823,43.764C92.611,43.984 90.398,44.207 88.19,44.425M65.645,41.773C65.425,41.335 65.204,40.89 64.982,40.447C75.832,36.839 83.74,29.102 92.833,23.207C98.253,24.448 101.569,27.41 107.422,26.523C96.766,38.032 85.415,44.268 65.645,41.773M134.605,15.915C135.713,16.136 136.818,16.356 137.923,16.579C134.608,17.682 131.291,18.787 127.978,19.894L125.987,19.894C128.861,18.567 131.736,17.241 134.605,15.915M39.785,39.786C39.891,34.207 41.092,31.234 43.101,27.851C40.827,25.956 38.877,25.218 34.48,25.197C38.859,19.419 44.445,18.942 51.058,15.252L53.046,15.252C50.395,23.207 47.741,31.166 45.09,39.121C43.319,39.342 41.553,39.564 39.785,39.786M41.774,47.08C41.111,47.298 40.448,47.521 39.785,47.743C39.563,45.754 39.342,43.764 39.122,41.773C40.006,42.439 40.89,43.101 41.774,43.764L43.101,43.764C42.661,44.869 42.218,45.975 41.774,47.08M21.881,43.101C22.103,43.764 22.323,44.425 22.546,45.091C21.881,45.532 21.219,45.975 20.556,46.418C19.67,43.764 18.787,41.112 17.904,38.46C19.967,39.724 20.429,41.345 21.881,43.101M11.936,44.425C11.492,44.207 11.051,43.984 10.608,43.764C10.388,41.993 10.166,40.226 9.944,38.46C10.608,37.356 11.271,36.248 11.936,35.145C13.163,37.26 12.558,40.761 11.936,44.425M36.471,-4.642C41.823,-1.035 40.995,0.351 35.144,2.65C34.922,-0.663 34.702,-3.981 34.48,-7.295C35.144,-6.41 35.807,-5.526 36.471,-4.642M161.795,43.101C138.589,42.439 115.374,41.773 92.171,41.112C103.396,27.989 127.196,21.108 145.881,15.915L145.881,15.252C145.658,14.81 145.438,14.367 145.216,13.924C127.626,10.95 118.627,25.702 100.126,23.207C99.188,20.55 99.505,21.225 97.475,19.894L97.475,9.284C97.031,9.063 96.589,8.839 96.149,8.62C93.84,12.266 93.831,16.641 94.823,20.557C84.271,18.366 74.446,11.896 62.331,13.924C61.89,14.588 61.446,15.252 61.004,15.915C60.286,19.543 60.571,23.714 61.667,27.185C62.548,28.514 63.437,29.839 64.319,31.166L66.971,31.166C65.344,25.399 63.573,25.451 63.656,17.241C71.522,13.341 78.988,19.628 86.865,21.88C87.087,22.323 87.309,22.764 87.528,23.207C74.205,30.423 68.184,40.97 47.743,38.46L47.743,37.796C50.617,30.061 53.491,22.323 56.363,14.588C51.25,9.676 38.304,17.414 33.154,19.894C34.029,16.088 34.932,11.165 33.817,7.294C36.583,4.461 42.14,2.462 46.416,1.328C46.279,0.964 32.09,-15.158 31.828,-15.253C31.608,-8.4 31.388,-1.548 31.166,5.305C29.174,6.41 27.186,7.514 25.197,8.62C25.638,9.284 26.079,9.947 26.521,10.609C29.573,9.846 29.198,9.418 31.166,7.956L31.166,21.218C30.062,21.88 28.956,22.544 27.849,23.207C27.406,21.439 26.965,19.672 26.521,17.904C25.857,17.461 25.197,17.019 24.535,16.579C22.853,18.789 23.396,21.638 24.535,24.535C23.429,25.417 22.323,26.302 21.219,27.185C20.556,27.851 19.893,28.514 19.229,29.172C19.604,24.473 18.463,20.757 18.566,13.924C17.46,14.144 16.355,14.367 15.251,14.588C16.355,13.484 17.46,12.376 18.566,11.274C17.245,8.844 18.88,10.149 15.915,9.284C17.459,7.956 19.008,6.631 20.556,5.305C20.334,4.42 20.113,3.535 19.893,2.65C14.394,1.974 12.006,4.858 7.956,7.294L7.956,3.977C7.072,4.198 6.187,4.42 5.306,4.641C4.863,6.188 4.419,7.736 3.979,9.284C4.2,9.947 4.419,10.609 4.643,11.274C10.175,10.614 11.288,8.116 15.251,5.967C12.35,9.446 8.193,12.472 3.316,13.924C3.536,14.807 3.757,15.692 3.979,16.579C6.631,15.692 9.282,14.807 11.936,13.924C8.62,16.356 5.306,18.787 1.991,21.218C2.21,22.101 2.43,22.987 2.653,23.87C6.849,21.88 11.051,19.894 15.251,17.904C14.587,22.101 13.924,26.302 13.26,30.501C10.968,35.299 7.317,33.954 7.293,43.101C8.62,44.65 9.944,46.194 11.271,47.743L13.26,47.743C14.931,45.656 15.348,44.114 15.251,41.773C17.241,44.206 19.229,46.638 21.219,49.069C28.219,44.898 21.911,39.817 20.556,32.492C22.103,31.166 23.649,29.839 25.197,28.514C29.21,31.125 31.429,29.32 36.471,27.851C32.269,30.72 28.069,33.596 23.871,36.471C23.649,36.911 23.429,37.353 23.209,37.796C27.98,41.227 33.444,35.716 37.133,33.818C34.747,41.341 36.583,48.534 33.817,55.037C35.144,54.815 36.471,54.594 37.796,54.375C38.017,52.826 38.236,51.278 38.459,49.732C45.337,48.718 47.183,43.644 55.036,42.439C64.536,44.206 74.046,45.975 83.548,47.743C102.549,44.676 121.486,45.028 146.544,45.091C143.227,45.532 139.911,45.975 136.597,46.418C136.376,46.858 136.156,47.298 135.935,47.743C144.332,47.298 152.733,46.858 161.13,46.418C161.575,45.754 162.019,45.091 162.456,44.425C162.236,43.984 162.019,43.542 161.795,43.101M15.251,-6.634C15.692,-6.188 16.133,-5.748 16.579,-5.305C17.459,-5.97 18.344,-6.634 19.229,-7.295C18.232,-12.346 14.355,-16.282 9.282,-17.241C9.062,-16.8 8.839,-16.358 8.62,-15.916C11.412,-12.744 15.398,-10.898 15.251,-6.634"/>
        </g>
    </g>
</svg>
