<?xml version="1.0" encoding="UTF-8" standalone="no"?>
<!DOCTYPE svg PUBLIC "-//W3C//DTD SVG 1.1//EN" "http://www.w3.org/Graphics/SVG/1.1/DTD/svg11.dtd">
<svg width="100%" height="100%" viewBox="0 0 90 40" version="1.1" xmlns="http://www.w3.org/2000/svg" xmlns:xlink="http://www.w3.org/1999/xlink" xml:space="preserve" xmlns:serif="http://www.serif.com/" style="fill-rule:evenodd;clip-rule:evenodd;stroke-linejoin:round;stroke-miterlimit:2;">
    <g transform="matrix(1,0,0,1,-1517,-397.532)">
        <g transform="matrix(0.495853,0,0,0.495853,1598.23,422.465)">
            <path d="M0,-20.815L0.444,-20.815C4.548,-18.166 2.383,-13.419 1.47,-10.244C1.225,-10.048 0.98,-9.852 0.735,-9.655C0.489,-13.373 0.249,-17.094 0,-20.815M17.476,11.489C16.402,7.354 11.318,4.923 7.639,3.268C5.975,2.826 4.309,2.384 2.646,1.947C2.048,1.226 1.474,-3.532 1.47,-4.955C3.975,-5.94 7.098,-9.279 7.933,-12.298C9.374,-17.53 5.725,-25.361 1.031,-24.927C-5.044,-24.363 -8.62,-20.398 -12.477,-16.408C-14.014,-14.821 -14.758,-12.571 -16.737,-11.416C-16.787,-11.319 -16.834,-11.224 -16.883,-11.122C-16.834,-14.012 -16.787,-16.903 -16.737,-19.788C-17.487,-23.902 -18.149,-28.782 -19.819,-32.12C-21.051,-32.555 -22.249,-32.463 -23.636,-32.268C-23.832,-31.877 -24.029,-31.484 -24.223,-31.095C-23.5,-25.303 -21.056,-19.573 -22.024,-13.621C-22.797,-8.857 -22.318,-4.272 -18.204,-4.371C-16.883,-5.346 -15.56,-6.326 -14.241,-7.307C-12.521,-9.685 -8.544,-17.624 -5.43,-18.465L-5.43,-18.761C-4.539,-18.203 -5.098,-12.978 -4.843,-11.416C-4.237,-7.716 -4.284,-3.497 -3.082,1.064L-3.082,1.503C-12.694,1.824 -20.41,3.984 -27.602,6.495C-27.505,7.277 -27.407,8.063 -27.307,8.847C-23.874,10.769 -19.691,8.149 -16.589,7.083C-12.336,5.629 -6.859,5.602 -2.054,5.762C-1.613,8.112 -1.173,10.46 -0.731,12.811L-0.731,12.956C-2.63,13.437 -4.697,13.065 -6.46,12.664C-6.36,12.811 -6.261,12.956 -6.163,13.103L-6.163,13.252C-7.387,13.153 -8.611,13.054 -9.834,12.956C-9.736,13.348 -9.639,13.743 -9.543,14.133C-7.531,15.332 -3.766,17.928 0.149,16.771C1.012,16.522 1.922,16.166 2.939,16.188C4.535,13.637 4.995,11.082 3.82,7.526L3.82,6.937C7.692,7.81 11.189,10.218 12.777,13.396C12.204,18.934 5.571,20.479 3.232,24.411C3.134,24.604 3.035,24.801 2.939,24.997C3.185,25.095 3.427,25.194 3.673,25.293C4.415,26.112 7.928,24.231 9.104,23.531C12.515,21.494 18.94,17.134 17.476,11.489M2.501,-29.038C6.104,-29.589 10.102,-28.372 9.252,-31.972C9.428,-33.874 4.828,-33.562 2.501,-33.441C-1.074,-33.344 -4.648,-33.246 -8.221,-33.147C-10.042,-33.719 -11.728,-34.214 -14.093,-34.178C-16.466,-33.353 -17.912,-33.032 -16.737,-30.358C-13.068,-28.114 -2.757,-28.232 2.501,-29.038M-74.366,3.38C-74.331,2.474 -74.942,3.047 -75.833,3.233C-75.492,-0.63 -75.149,-4.499 -74.806,-8.367C-75.237,-8.836 -75.213,-9.047 -75.982,-9.249C-76.41,-10.203 -75.424,-11.124 -75.689,-11.892C-75.932,-12.428 -76.177,-12.966 -76.424,-13.506C-77.429,-14.253 -78.973,-14.451 -80.827,-14.385C-83.412,-13.354 -87.507,-14.796 -88.903,-12.771L-88.903,-10.861C-87.097,-9.871 -84.274,-9.665 -81.414,-9.981L-81.414,-9.834C-82.928,-7.555 -89.554,0.582 -88.314,3.089C-87.733,3.945 -86.887,4.054 -85.527,4.118C-83.551,2.675 -82.058,-0.086 -80.827,-2.199C-80.78,0.444 -80.729,3.089 -80.681,5.734C-79.836,8.15 -76.453,7.906 -74.954,6.318C-74.334,5.66 -74.355,4.456 -73.927,3.969C-74.129,3.411 -73.922,3.665 -74.366,3.38M-45.88,10.723C-46.028,10.524 -46.175,10.33 -46.322,10.138C-47.056,10.33 -47.789,10.524 -48.522,10.723C-49.6,9.405 -52.713,3.397 -51.608,0.738C-50.813,0.039 -48.774,0.111 -47.938,-0.438C-46.658,-1.275 -46.079,-3.495 -44.71,-4.106C-44.683,-8.193 -45.237,-11.787 -47.056,-14.091C-47.683,-14.887 -50.713,-17.006 -50.729,-17.177C-51.074,-17.438 -52.476,-17.28 -53.225,-17.763C-54.544,-17.373 -55.867,-16.978 -57.186,-16.589C-61.414,-13.951 -64.929,-5.047 -66.585,0.153L-66.878,0.153C-67.475,-2.502 -66.519,-6.53 -67.172,-9.395C-67.514,-9.785 -67.859,-10.177 -68.199,-10.57C-70,-10.953 -70.623,-10.426 -71.871,-9.69C-73.114,-3.738 -73.465,7.597 -66.145,7.495C-60.295,1.44 -60.187,-10.087 -53.664,-13.652C-51.839,-12.718 -49.115,-9.045 -49.698,-6.015C-49.926,-4.839 -50.877,-4.284 -51.313,-3.371C-51.752,-3.562 -51.49,-3.37 -51.754,-3.668C-52.754,-4.711 -51.86,-7.41 -52.783,-8.953C-53.189,-9.468 -54.453,-9.918 -56.012,-9.834C-58.111,-8.336 -57.048,-4.35 -57.186,-1.315C-57.587,7.269 -54.977,15.972 -47.056,15.717C-45.729,13.802 -44.226,13.704 -44.269,10.138L-44.561,10.138C-44.588,10.073 -45.592,10.343 -45.88,10.723M-77.156,-25.545C-80.715,-24.135 -85.271,-25.971 -87.874,-23.341C-88.038,-22.51 -87.927,-21.873 -87.727,-21.139C-84.379,-18.827 -78.981,-22.517 -75.395,-20.555C-73.812,-21.751 -72.302,-21.703 -72.607,-24.515C-73.646,-25.301 -75.287,-25.55 -77.156,-25.545M-125.052,23.279C-130.347,28.057 -142.331,20.043 -146.197,20.341C-146.457,20.169 -146.314,20.312 -146.344,20.636C-146.686,20.341 -147.028,20.051 -147.371,19.758C-148,19.376 -147.763,19.469 -147.371,19.021C-147.833,18.667 -148.381,18.379 -148.692,18.287C-148.625,18.091 -148.752,18.167 -148.548,18.144C-148.65,17.17 -148.802,17.314 -149.28,16.821C-149.23,16.724 -149.182,16.624 -149.134,16.524C-142.137,16.133 -135.136,15.743 -128.136,15.351L-126.522,15.351C-125.983,17.7 -125.444,20.051 -124.908,22.402C-124.73,22.858 -124.73,22.963 -125.052,23.279M-131.369,-9.758C-131.76,-12.399 -132.15,-15.044 -132.541,-17.686C-128.088,-18.177 -123.634,-18.664 -119.182,-19.153L-118.006,-19.153C-117.958,-19.106 -117.908,-19.057 -117.858,-19.008L-117.858,-18.861C-121.828,-15.535 -126.865,-12.448 -131.369,-9.758M-105.229,11.678C-107.643,11.232 -108.931,10.7 -111.546,10.064C-113.114,10.734 -118.403,10.327 -122.265,10.358C-122.803,8.549 -123.34,6.737 -123.879,4.926C-124.025,3.213 -124.173,1.499 -124.319,-0.212C-125.3,-2.658 -126.278,-5.11 -127.255,-7.555C-124.028,-9.611 -120.796,-11.665 -117.566,-13.72C-115.394,-15.522 -113.149,-18.926 -110.518,-20.036C-110.566,-20.573 -110.617,-21.111 -110.667,-21.651C-111.413,-22.971 -114.872,-23.722 -117.125,-23.411C-121.706,-22.781 -127.357,-22.066 -132.983,-21.651C-134.236,-25.188 -133.522,-26.651 -132.102,-28.992C-129.583,-29.551 -126.462,-30.584 -124.025,-31.047C-123.671,-31.871 -123.526,-32.816 -124.025,-33.105C-123.722,-35.011 -132.416,-33.467 -134.597,-32.517C-135.039,-36.531 -135.478,-40.542 -135.919,-44.556C-135.22,-44.457 -134.835,-44.287 -134.452,-44.556C-133.615,-44.765 -133.492,-45.239 -133.569,-45.879L-133.569,-46.317C-134.184,-47.33 -137.525,-50.231 -139.146,-50.283C-139.786,-50.135 -140.422,-49.988 -141.057,-49.842C-141.206,-49.643 -141.352,-49.45 -141.497,-49.252C-141.502,-43.712 -139.986,-37.49 -139.88,-31.633C-144.658,-30.002 -151.738,-34.041 -153.389,-32.663C-153.923,-32.362 -153.996,-32.193 -154.124,-31.489C-152.161,-27.082 -145.015,-27.106 -139.296,-27.376C-140.037,-23.869 -143.803,-21.33 -146.197,-19.299C-151.627,-14.703 -157.477,-10.018 -163.816,-6.377C-163.841,-2.09 -159.445,-3.651 -157.21,-5.351C-153.293,-8.24 -149.378,-11.127 -145.463,-14.017C-144.534,-14.848 -143.602,-15.678 -142.672,-16.511C-141.941,-16.822 -139.16,-16.971 -138.122,-17.244C-136.18,-14.787 -138.239,-8.454 -136.065,-6.232C-135.337,-4.528 -133.291,-5.226 -132.247,-5.94C-131.512,-4.228 -130.78,-2.513 -130.046,-0.798C-128.921,2.662 -128.719,7.007 -127.99,10.358L-127.99,10.506C-136.779,12.773 -152.729,9.131 -156.034,15.794C-155.585,15.485 -155.747,16.487 -155.593,16.821C-154.504,18.154 -151.593,18.475 -150.163,19.462C-145.327,22.799 -141.748,27.167 -134.889,28.566C-130.472,29.468 -121.471,28.317 -119.62,25.778C-117.928,23.449 -119.876,17.918 -120.796,15.501L-120.796,15.351C-116.048,15.059 -111.299,14.763 -106.552,14.47C-105.777,13.807 -105.215,13.323 -104.938,12.119C-105.362,11.866 -104.995,12.102 -105.229,11.678"/>
        </g>
    </g>
</svg>
