<?xml version="1.0" encoding="UTF-8" standalone="no"?>
<!DOCTYPE svg PUBLIC "-//W3C//DTD SVG 1.1//EN" "http://www.w3.org/Graphics/SVG/1.1/DTD/svg11.dtd">
<svg width="100%" height="100%" viewBox="0 0 56 81" version="1.1" xmlns="http://www.w3.org/2000/svg" xmlns:xlink="http://www.w3.org/1999/xlink" xml:space="preserve" xmlns:serif="http://www.serif.com/" style="fill-rule:evenodd;clip-rule:evenodd;stroke-linejoin:round;stroke-miterlimit:2;">
    <g transform="matrix(1,0,0,1,-585,-566.682)">
        <g transform="matrix(0.548205,0,0,0.548205,585,564.598)">
            <g transform="matrix(1,0,0,1,0.1992,3.801)">
                <path d="M0,147.327L0,145.826C4.602,145.826 7.585,144.961 8.952,143.227C10.318,141.496 11.003,138.53 11.003,134.332L11.003,13.795C11.003,9.53 10.468,6.448 9.402,4.549C8.335,2.65 5.134,1.635 -0.199,1.5L-0.199,0L39.308,0L39.308,1.5C35.64,1.5 33.072,1.968 31.606,2.9C30.139,3.835 29.172,4.935 28.706,6.201C28.238,7.469 28.006,10.336 28.006,14.803L28.006,118.222C28.006,127.091 30.136,133.342 34.397,136.974C38.659,140.61 45.951,142.426 56.271,142.426L74.25,142.426C82.904,142.426 89.248,140.293 93.277,136.024C97.306,131.759 99.553,123.723 100.019,111.921L101.52,111.921L101.52,147.327L0,147.327Z" style="fill-rule:nonzero;"/>
            </g>
        </g>
    </g>
</svg>
