<?xml version="1.0" encoding="UTF-8" standalone="no"?>
<!DOCTYPE svg PUBLIC "-//W3C//DTD SVG 1.1//EN" "http://www.w3.org/Graphics/SVG/1.1/DTD/svg11.dtd">
<svg width="100%" height="100%" viewBox="0 0 55 84" version="1.1" xmlns="http://www.w3.org/2000/svg" xmlns:xlink="http://www.w3.org/1999/xlink" xml:space="preserve" xmlns:serif="http://www.serif.com/" style="fill-rule:evenodd;clip-rule:evenodd;stroke-linejoin:round;stroke-miterlimit:2;">
    <g transform="matrix(1,0,0,1,-1280.17,-564.598)">
        <g transform="matrix(0.548205,0,0,0.548205,585,564.598)">
            <g transform="matrix(1,0,0,1,1293.47,136.225)">
                <path d="M0,-119.322L-5.572,-77.725C2.372,-81.518 11.718,-83.416 22.465,-83.416C37.417,-83.416 49.666,-78.865 59.212,-69.763C68.758,-60.662 73.532,-49.042 73.532,-34.907C73.532,-21.037 68.431,-8.935 58.229,1.4C48.027,11.737 35.458,16.903 20.522,16.903C12.187,16.903 4.402,15.403 -2.832,12.402C-10.068,9.402 -17.585,4.835 -25.387,-1.301L-25.387,-6.002C-18.385,-1.534 -11.501,2.15 -4.732,5.051C2.034,7.951 9.02,9.402 16.222,9.402C28.689,9.402 38.741,5.351 46.377,-2.751C54.011,-10.852 57.829,-20.204 57.829,-30.806C57.829,-41.008 54.444,-49.492 47.677,-56.26C40.908,-63.027 31.657,-66.413 19.922,-66.413C9.786,-66.413 -1.217,-63.677 -13.084,-58.211L-3.683,-132.425L63.13,-132.425C65.53,-132.425 67.546,-132.575 69.181,-132.875C70.814,-133.175 72.064,-134.225 72.932,-136.025L74.632,-136.225L69.931,-119.52L0,-119.322Z" style="fill-rule:nonzero;"/>
            </g>
        </g>
    </g>
</svg>
