<?xml version="1.0" encoding="UTF-8" standalone="no"?>
<!DOCTYPE svg PUBLIC "-//W3C//DTD SVG 1.1//EN" "http://www.w3.org/Graphics/SVG/1.1/DTD/svg11.dtd">
<svg width="100%" height="100%" viewBox="0 0 86 82" version="1.1" xmlns="http://www.w3.org/2000/svg" xmlns:xlink="http://www.w3.org/1999/xlink" xml:space="preserve" xmlns:serif="http://www.serif.com/" style="fill-rule:evenodd;clip-rule:evenodd;stroke-linejoin:round;stroke-miterlimit:2;">
    <g transform="matrix(1,0,0,1,-704.657,-566.682)">
        <g transform="matrix(0.548205,0,0,0.548205,585,564.598)">
            <g transform="matrix(1,0,0,1,345.694,152.928)">
                <path d="M0,-149.127L28.506,-149.127L28.506,-147.627C24.17,-147.492 21.17,-146.576 19.504,-144.876C17.836,-143.176 17.004,-139.591 17.004,-134.124L17.004,0L-100.518,-125.137L-100.518,-16.193C-100.518,-12.729 -100.252,-10.164 -99.718,-8.498C-99.185,-6.832 -98.418,-5.699 -97.418,-5.099C-96.417,-4.499 -93.917,-3.9 -89.916,-3.301L-89.916,-1.8L-118.222,-1.8L-118.222,-3.301C-113.154,-3.301 -110.004,-4.199 -108.77,-5.999C-107.536,-7.798 -106.919,-12.096 -106.919,-18.893L-106.919,-118.542C-106.919,-127.27 -108.137,-134.399 -110.57,-139.93C-113.005,-145.461 -118.621,-148.026 -127.423,-147.627L-127.423,-149.127L-99.718,-149.127L10.702,-31.549L10.702,-135.529C10.702,-141.127 9.702,-144.543 7.702,-145.776C5.701,-147.01 3.134,-147.627 0,-147.627L0,-149.127Z" style="fill-rule:nonzero;"/>
            </g>
        </g>
    </g>
</svg>
