<?xml version="1.0" encoding="UTF-8" standalone="no"?>
<!DOCTYPE svg PUBLIC "-//W3C//DTD SVG 1.1//EN" "http://www.w3.org/Graphics/SVG/1.1/DTD/svg11.dtd">
<svg width="100%" height="100%" viewBox="0 0 87 81" version="1.1" xmlns="http://www.w3.org/2000/svg" xmlns:xlink="http://www.w3.org/1999/xlink" xml:space="preserve" xmlns:serif="http://www.serif.com/" style="fill-rule:evenodd;clip-rule:evenodd;stroke-linejoin:round;stroke-miterlimit:2;">
    <g transform="matrix(1,0,0,1,-789.215,-566.681)">
        <g transform="matrix(0.548205,0,0,0.548205,585,564.598)">
            <g transform="matrix(1,0,0,1,422.726,148.027)">
                <path d="M0,-141.126L-22.604,-141.126L-22.604,-26.805C-22.604,-19.604 -21.389,-14.253 -18.953,-10.752C-16.521,-7.252 -12.369,-4.717 -6.501,-3.15C-0.635,-1.583 7.267,-0.801 17.203,-0.801C44.808,-0.801 64.194,-7.885 75.363,-22.055C86.531,-36.223 92.117,-51.676 92.117,-68.413C92.117,-88.082 84.466,-105.119 69.162,-119.522C53.859,-133.925 30.806,-141.126 0,-141.126M-50.209,-142.727L-50.209,-144.227L17.403,-144.227C34.606,-144.227 48.191,-142.876 58.16,-140.176C68.128,-137.476 76.813,-133.225 84.215,-127.424C91.616,-121.622 97.483,-114.204 101.818,-105.17C106.152,-96.134 108.319,-86.049 108.319,-74.914C108.319,-64.178 106.069,-53.626 101.568,-43.258C97.067,-32.889 90.949,-23.955 83.215,-16.453C75.479,-8.952 67.328,-3.816 58.761,-1.051C50.191,1.717 36.939,3.101 19.003,3.101L-50.209,3.101L-50.209,1.6L-48.409,1.6C-44.809,1.6 -42.442,0.151 -41.308,-2.748C-40.175,-5.645 -39.607,-10.893 -39.607,-18.489L-39.607,-125.735C-39.607,-133.73 -40.292,-138.562 -41.658,-140.228C-43.025,-141.894 -45.876,-142.727 -50.209,-142.727" style="fill-rule:nonzero;"/>
            </g>
        </g>
    </g>
</svg>
