<?xml version="1.0" encoding="UTF-8" standalone="no"?>
<!DOCTYPE svg PUBLIC "-//W3C//DTD SVG 1.1//EN" "http://www.w3.org/Graphics/SVG/1.1/DTD/svg11.dtd">
<svg width="100%" height="100%" viewBox="0 0 99 81" version="1.1" xmlns="http://www.w3.org/2000/svg" xmlns:xlink="http://www.w3.org/1999/xlink" xml:space="preserve" xmlns:serif="http://www.serif.com/" style="fill-rule:evenodd;clip-rule:evenodd;stroke-linejoin:round;stroke-miterlimit:2;">
    <g transform="matrix(1,0,0,1,-870.976,-566.682)">
        <g transform="matrix(0.548205,0,0,0.548205,585,564.598)">
            <g transform="matrix(1,0,0,1,663.932,151.128)">
                <path d="M0,-147.327L23.258,-147.327L23.258,-145.827C15.396,-145.427 11.466,-141.323 11.466,-133.516C11.466,-131.848 11.666,-129.546 12.066,-126.611L27.559,-15.003C28.491,-9.442 29.541,-5.886 30.709,-4.331C31.875,-2.774 34.292,-1.832 37.96,-1.501L37.96,0L4.854,0L4.854,-1.501C9.268,-1.366 11.474,-3.485 11.474,-7.858C11.474,-8.851 11.274,-10.806 10.874,-13.72L-4.247,-121.923L-57.058,0L-58.058,0L-111.167,-121.723L-126.108,-12.907C-126.376,-11.254 -126.509,-9.369 -126.509,-7.253C-126.509,-3.418 -124.264,-1.501 -119.769,-1.501L-119.769,0L-142.272,0L-142.272,-1.501C-138.872,-1.501 -136.688,-1.916 -135.722,-2.751C-134.756,-3.584 -134.006,-4.917 -133.471,-6.752C-132.938,-8.585 -132.538,-10.635 -132.271,-12.902L-115.423,-131.918C-118.164,-138.522 -120.906,-142.49 -123.647,-143.825C-126.389,-145.159 -129.029,-145.827 -131.571,-145.827L-131.571,-147.327L-103.788,-147.327L-51.977,-26.824L0,-147.327Z" style="fill-rule:nonzero;"/>
            </g>
        </g>
    </g>
</svg>
