<?xml version="1.0" encoding="UTF-8" standalone="no"?>
<!DOCTYPE svg PUBLIC "-//W3C//DTD SVG 1.1//EN" "http://www.w3.org/Graphics/SVG/1.1/DTD/svg11.dtd">
<svg width="100%" height="100%" viewBox="0 0 77 82" version="1.1" xmlns="http://www.w3.org/2000/svg" xmlns:xlink="http://www.w3.org/1999/xlink" xml:space="preserve" xmlns:serif="http://www.serif.com/" style="fill-rule:evenodd;clip-rule:evenodd;stroke-linejoin:round;stroke-miterlimit:2;">
    <g transform="matrix(1,0,0,1,-961.674,-565.476)">
        <g transform="matrix(0.548205,0,0,0.548205,585,564.598)">
            <g transform="matrix(1,0,0,1,730.126,73.5139)">
                <path d="M0,5.701L39.847,5.701L19.941,-44.509L0,5.701ZM41.823,9.802L-1.414,9.802L-23.717,65.412C-25.251,69.412 -26.018,71.88 -26.018,72.813C-26.018,75.014 -24.384,76.113 -21.116,76.113L-21.116,77.614L-43.021,77.614L-43.021,76.113C-40.09,76.113 -37.626,75.398 -35.627,73.963C-33.63,72.528 -31.431,68.809 -29.032,62.805L24.368,-71.913L27.016,-71.913L79.544,58.193C79.544,58.862 80.89,62.015 83.584,67.654C86.278,73.295 90.386,76.113 95.905,76.113L95.905,77.614L61.499,77.614L61.499,76.113C64.632,76.113 66.199,74.881 66.199,72.413C66.199,70.747 65.433,68.079 63.899,64.411C63.632,64.145 63.399,63.712 63.199,63.111C63.064,62.445 62.965,62.111 62.899,62.111L41.823,9.802Z" style="fill-rule:nonzero;"/>
            </g>
        </g>
    </g>
</svg>
