<?xml version="1.0" encoding="UTF-8" standalone="no"?>
<!DOCTYPE svg PUBLIC "-//W3C//DTD SVG 1.1//EN" "http://www.w3.org/Graphics/SVG/1.1/DTD/svg11.dtd">
<svg width="100%" height="100%" viewBox="0 0 84 82" version="1.1" xmlns="http://www.w3.org/2000/svg" xmlns:xlink="http://www.w3.org/1999/xlink" xml:space="preserve" xmlns:serif="http://www.serif.com/" style="fill-rule:evenodd;clip-rule:evenodd;stroke-linejoin:round;stroke-miterlimit:2;">
    <g transform="matrix(1,0,0,1,-1033.79,-566.682)">
        <g transform="matrix(0.548205,0,0,0.548205,585,564.598)">
            <g transform="matrix(1,0,0,1,846.251,148.628)">
                <path d="M0,-140.927L0,-71.814L15.433,-71.814C27.591,-71.814 36.611,-74.68 42.49,-80.415C48.37,-86.15 51.31,-93.684 51.31,-103.02C51.31,-112.087 48.42,-120.673 42.641,-128.775C36.861,-136.876 26.689,-140.927 12.126,-140.927L0,-140.927ZM-27.604,-143.327L-27.604,-144.827L14.203,-144.827C24.805,-144.827 32.472,-144.593 37.207,-144.126C41.94,-143.658 46.791,-142.107 51.76,-139.472C56.727,-136.835 60.477,-133.266 63.012,-128.762C65.545,-124.258 66.813,-118.736 66.813,-112.197C66.813,-104.722 64.561,-97.599 60.06,-90.825C55.559,-84.052 49.206,-78.329 41.005,-73.659L51.406,-57.671C53.674,-53.673 59.692,-44.912 69.461,-31.388C79.23,-17.864 86.781,-9.618 92.117,-6.653C97.451,-3.685 102.619,-2.201 107.62,-2.201C112.554,-2.201 118.222,-4.102 124.623,-7.903L125.223,-5.902C117.228,0.634 106.837,3.9 94.047,3.9C85.521,3.9 78.192,1.376 72.063,-3.672C65.934,-8.72 55.267,-22.571 40.061,-45.227C39.926,-45.358 39.86,-45.49 39.86,-45.625L25.053,-68.413L11.926,-68.013L0,-68.013L0,-11.685C0,-7.156 0.594,-3.911 1.783,-1.947C2.971,0.017 5.845,0.999 10.402,0.999L10.402,2.5L-27.604,2.5L-27.604,0.999C-22.871,0.8 -19.921,-0.199 -18.753,-1.998C-17.588,-3.797 -17.003,-7.462 -17.003,-12.994L-17.003,-130.034C-17.003,-133.831 -17.503,-136.979 -18.503,-139.478C-19.504,-141.977 -22.538,-143.26 -27.604,-143.327" style="fill-rule:nonzero;"/>
            </g>
        </g>
    </g>
</svg>
