<?xml version="1.0" encoding="UTF-8" standalone="no"?>
<!DOCTYPE svg PUBLIC "-//W3C//DTD SVG 1.1//EN" "http://www.w3.org/Graphics/SVG/1.1/DTD/svg11.dtd">
<svg width="100%" height="100%" viewBox="0 0 89 81" version="1.1" xmlns="http://www.w3.org/2000/svg" xmlns:xlink="http://www.w3.org/1999/xlink" xml:space="preserve" xmlns:serif="http://www.serif.com/" style="fill-rule:evenodd;clip-rule:evenodd;stroke-linejoin:round;stroke-miterlimit:2;">
    <g transform="matrix(1,0,0,1,-1112.59,-566.682)">
        <g transform="matrix(0.548205,0,0,0.548205,585,564.598)">
            <g transform="matrix(1,0,0,1,962.388,151.128)">
                <path d="M0,-147.327L42.207,-147.327L42.207,-145.827C37.606,-146.027 34.372,-145.343 32.506,-143.776C30.638,-142.209 29.705,-138.126 29.705,-131.524L29.705,-75.014L117.221,-140.725C118.954,-141.926 119.821,-143.026 119.821,-144.026C119.821,-145.226 117.855,-145.827 113.921,-145.827L113.921,-147.327L145.727,-147.327L145.727,-145.827C137.719,-145.627 129.912,-142.698 122.308,-137.044L46.043,-80.152L122.122,-22.383C122.188,-22.315 122.288,-22.248 122.422,-22.182C122.555,-22.115 122.655,-22.015 122.723,-21.883C122.856,-21.815 122.988,-21.782 123.122,-21.782C133.116,-14.318 140.864,-9.072 146.369,-6.044C151.873,-3.015 157.025,-1.501 161.829,-1.501L161.829,0L111.72,0L111.72,-1.501C116.187,-1.501 118.421,-2.001 118.421,-3.001C118.421,-3.866 116.587,-5.701 112.92,-8.502L29.705,-71.713L29.705,-17.081C29.705,-10.689 30.155,-6.761 31.056,-5.297C31.955,-3.831 33.156,-2.782 34.656,-2.149C36.156,-1.516 38.606,-1.301 42.008,-1.501L42.008,0L0,0L0,-1.501C5.601,-1.233 9.117,-2.083 10.552,-4.05C11.984,-6.015 12.702,-10.163 12.702,-16.492L12.702,-130.735C12.702,-137.264 11.984,-141.495 10.552,-143.428C9.117,-145.359 5.601,-146.16 0,-145.827L0,-147.327Z" style="fill-rule:nonzero;"/>
            </g>
        </g>
    </g>
</svg>
