<?xml version="1.0" encoding="UTF-8" standalone="no"?>
<!DOCTYPE svg PUBLIC "-//W3C//DTD SVG 1.1//EN" "http://www.w3.org/Graphics/SVG/1.1/DTD/svg11.dtd">
<svg width="100%" height="100%" viewBox="0 0 57 84" version="1.1" xmlns="http://www.w3.org/2000/svg" xmlns:xlink="http://www.w3.org/1999/xlink" xml:space="preserve" xmlns:serif="http://www.serif.com/" style="fill-rule:evenodd;clip-rule:evenodd;stroke-linejoin:round;stroke-miterlimit:2;">
    <g transform="matrix(1,0,0,1,-1220.78,-565.311)">
        <g transform="matrix(0.548205,0,0,0.548205,585,564.598)">
            <g transform="matrix(1,0,0,1,1215.27,64.5121)">
                <path d="M0,25.404C8.002,25.404 14.953,22.459 20.854,16.564C26.755,10.671 29.705,3.927 29.705,-3.666C29.705,-15.787 25.37,-27.824 16.703,-39.78C8.034,-51.733 -2.035,-57.71 -13.502,-57.71C-21.838,-57.71 -28.605,-54.713 -33.806,-48.72C-39.007,-42.725 -41.607,-35.766 -41.607,-27.841C-41.607,-15.453 -37.642,-3.482 -29.705,8.073C-21.771,19.629 -11.869,25.404 0,25.404M-36.707,88.616L-37.707,85.815C-21.304,81.882 -8.901,76.648 -0.5,70.113C7.901,63.579 14.969,55.077 20.704,44.608C26.437,34.14 29.705,22.804 30.506,10.602L30.105,10.202C25.971,18.137 20.187,24.089 12.752,28.055C5.316,32.023 -2.367,34.006 -10.302,34.006C-22.972,34.006 -33.673,29.444 -42.407,20.318C-51.144,11.192 -55.51,-0.164 -55.51,-13.754C-55.51,-27.341 -50.794,-38.981 -41.357,-48.673C-31.923,-58.366 -20.403,-63.212 -6.801,-63.212C8.401,-63.212 21.354,-57.347 32.056,-45.619C42.758,-33.892 48.108,-19.232 48.108,-1.641C48.108,20.349 40.841,39.807 26.305,56.732C11.768,73.657 -9.236,84.286 -36.707,88.616" style="fill-rule:nonzero;"/>
            </g>
        </g>
    </g>
</svg>
