<?xml version="1.0" encoding="UTF-8" standalone="no"?>
<!DOCTYPE svg PUBLIC "-//W3C//DTD SVG 1.1//EN" "http://www.w3.org/Graphics/SVG/1.1/DTD/svg11.dtd">
<svg width="100%" height="100%" viewBox="0 0 17 16" version="1.1" xmlns="http://www.w3.org/2000/svg" xmlns:xlink="http://www.w3.org/1999/xlink" xml:space="preserve" xmlns:serif="http://www.serif.com/" style="fill-rule:evenodd;clip-rule:evenodd;stroke-linejoin:round;stroke-miterlimit:2;">
    <g transform="matrix(1,0,0,1,-1755.92,-37)">
        <g transform="matrix(0.618938,0,0,1,620.79,-2.01996e-07)">
            <g transform="matrix(0.0680272,0,0,0.25,1709.21,27.7094)">
                <rect x="1834.35" y="37.162" width="49" height="8"/>
            </g>
        </g>
        <g transform="matrix(0.618938,0,0,1,620.79,-2.01996e-07)">
            <g transform="matrix(0.0680272,0,0,0.25,1720.88,27.7094)">
                <rect x="1834.35" y="37.162" width="49" height="8"/>
            </g>
        </g>
        <g transform="matrix(0.618938,0,0,1,620.79,-2.01996e-07)">
            <g transform="matrix(0.0680272,0,0,0.25,1732.55,27.7094)">
                <rect x="1834.35" y="37.162" width="49" height="8"/>
            </g>
        </g>
        <g transform="matrix(0.618938,0,0,1,620.79,-2.01996e-07)">
            <g transform="matrix(0.0680272,0,0,0.25,1709.21,34.7094)">
                <rect x="1834.35" y="37.162" width="49" height="8"/>
            </g>
        </g>
        <g transform="matrix(0.618938,0,0,1,620.79,-2.01996e-07)">
            <g transform="matrix(0.0680272,0,0,0.25,1720.88,34.7094)">
                <rect x="1834.35" y="37.162" width="49" height="8"/>
            </g>
        </g>
        <g transform="matrix(0.618938,0,0,1,620.79,-2.01996e-07)">
            <g transform="matrix(0.0680272,0,0,0.25,1732.55,34.7094)">
                <rect x="1834.35" y="37.162" width="49" height="8"/>
            </g>
        </g>
        <g transform="matrix(0.618938,0,0,1,620.79,-2.01996e-07)">
            <g transform="matrix(0.0680272,0,0,0.25,1709.21,41.7094)">
                <rect x="1834.35" y="37.162" width="49" height="8"/>
            </g>
        </g>
        <g transform="matrix(0.618938,0,0,1,620.79,-2.01996e-07)">
            <g transform="matrix(0.0680272,0,0,0.25,1720.88,41.7094)">
                <rect x="1834.35" y="37.162" width="49" height="8"/>
            </g>
        </g>
        <g transform="matrix(0.618938,0,0,1,620.79,-2.01996e-07)">
            <g transform="matrix(0.0680272,0,0,0.25,1732.55,41.7094)">
                <rect x="1834.35" y="37.162" width="49" height="8"/>
            </g>
        </g>
    </g>
</svg>
