<?xml version="1.0" encoding="UTF-8" standalone="no"?>
<!DOCTYPE svg PUBLIC "-//W3C//DTD SVG 1.1//EN" "http://www.w3.org/Graphics/SVG/1.1/DTD/svg11.dtd">
<svg width="100%" height="100%" viewBox="0 0 21 20" version="1.1" xmlns="http://www.w3.org/2000/svg" xmlns:xlink="http://www.w3.org/1999/xlink" xml:space="preserve" xmlns:serif="http://www.serif.com/" style="fill-rule:evenodd;clip-rule:evenodd;stroke-linejoin:round;stroke-miterlimit:2;">
    <g transform="matrix(1,0,0,1,-1265.68,-35)">
        <g transform="matrix(1.03156,0,0,1,-244.534,-9)">
            <g transform="matrix(-0.16129,0,0,0.16129,1484.48,43.6774)">
                <path d="M65,2C30.8,2 3,29.8 3,64C3,79.8 8.9,94.8 19.7,106.3L5.9,119.3L5.9,126L65,126C99.2,126 127,98.2 127,64C127,29.8 99.2,2 65,2ZM65,118L18.9,118L31.2,106.5L26.9,102.2C16.6,92 11,78.4 11,64C11,34.2 35.2,10 65,10C94.8,10 119,34.2 119,64C119,93.8 94.8,118 65,118Z" style="fill:white;fill-rule:nonzero;"/>
            </g>
        </g>
        <g transform="matrix(1.03156,0,0,1,-244.534,-9)">
            <g transform="matrix(0.642857,0,0,0.25,495.743,43.3965)">
                <rect x="1515.51" y="34.414" width="14" height="4" style="fill:white;"/>
            </g>
        </g>
        <g transform="matrix(1.03156,0,0,1,-244.534,-9)">
            <g transform="matrix(0.357143,0,0,0.25,928.746,46.3965)">
                <rect x="1515.51" y="34.414" width="14" height="4" style="fill:white;"/>
            </g>
        </g>
    </g>
</svg>
